# xmcd
#
# Track frame offsets:
#	150
#	10760
#	27463
#	39855
#	51228
#	62503
#	72455
#	89435
#	100613
#	114500
#	129798
#	145160
#	157245
#	168420
#
# Disc length: 2503 seconds
#
# Revision: 0
# Processed by: cddbd v1.4PL0 Copyright (c) Steve Scherf et al.
# Submitted via: dBpowerAMP V4.0
#
DISCID=b509c50e
DTITLE=Oliver Barrett - Yours Love
DYEAR=1900
DGENRE=Country
TTITLE0=Yours Love
TTITLE1=Slowly I'm Falling More In Love With You
TTITLE2=Heartaches By The Number
TTITLE3=Kentucky Waltz
TTITLE4=You're Th Only Good Thing 
TTITLE5=The Wreck Of The Old Number Nine
TTITLE6=After All These Years
TTITLE7=Tennessee Waltz
TTITLE8=There's Nothing I Can Do About It Now
TTITLE9=Blue Side Of Lonsome
TTITLE10=Good Hearted Woman
TTITLE11=Talking Walls
TTITLE12=Partners
TTITLE13=Forty Shades Of Green
EXTD=
EXTT0=
EXTT1=
EXTT2=
EXTT3=
EXTT4=
EXTT5=
EXTT6=
EXTT7=
EXTT8=
EXTT9=
EXTT10=
EXTT11=
EXTT12=
EXTT13=
PLAYORDER=
